<svg width="719" height="725" viewBox="0 0 719 725" fill="none" xmlns="http://www.w3.org/2000/svg">
<path d="M631.384 19.55C682.775 47.114 714.992 108.311 717.85 168.998C720.635 229.674 694.061 289.838 692.208 359.359C690.365 428.806 713.304 507.694 684.502 545.777C655.773 583.872 575.291 581.235 504.72 615.845C434.065 650.516 373.187 722.337 317.478 724.045C261.782 725.681 211.267 657.13 172.214 595.586C133.234 534.054 105.801 479.466 77.3262 421.565C48.7665 363.725 19.2495 302.511 6.72425 230.161C-5.80099 157.812 -1.24963 74.266 50.7556 46.119C102.688 17.961 202.159 45.141 274.832 47.425C347.443 49.625 393.206 26.77 451.39 12.4241C509.512 -2.00694 580.078 -8.07604 631.384 19.55Z" fill="#FBDCFF" fill-opacity="0.5"/>
</svg>
