<svg width="644" height="641" viewBox="0 0 644 641" fill="none" xmlns="http://www.w3.org/2000/svg">
<path opacity="0.76" d="M337.85 29.17C348.19 28.2 358.6 26.78 369.06 25.06C379.5 22.72 389.94 20.52 400.27 18.7C410.5 16.98 420.49 16.1 430.11 16.22C439.44 17.03 448.18 19.08 456.15 22.38C463.6 26.53 470.05 31.86 475.35 38.23C480 45.22 483.43 52.99 485.66 61.34C487.45 69.89 488.35 78.72 488.62 87.67C489.26 96.41 490.03 105.08 491.43 113.6C494.39 121.69 498.83 129.56 505.17 137.23C513.83 144.43 524.57 151.48 537.25 158.43C551.47 165 566.52 171.59 581.51 178.26C595.55 184.67 607.56 191.28 616.5 198.12C621.99 204.82 623.3 211.85 620.3 219.22C614.07 226.53 604.87 234.23 593.94 242.33C583.43 250.4 574.23 258.89 567.79 267.82C565.7 276.73 567.95 286.08 574.48 295.87C584.92 305.67 597.22 315.7 609.64 325.94C621.13 336.21 629.51 346.71 633.72 357.42C633.73 368.16 628.94 379.13 619.91 390.28C607.81 401.45 593.49 412.78 578.29 424.17C563.53 435.49 550.14 446.78 538.9 457.9C530.46 468.77 524.79 479.26 521.66 489.2C521.12 498.59 522.17 507.16 524.09 514.71C529.29 529.61 519.69 535.52 508.97 532.91C500.19 531.08 490.25 529.15 479.48 527.54C468.11 527.13 456.34 527.75 444.39 529.71C432.29 533.63 420.26 539.19 408.46 546.37C396.7 555.3 385.23 565.34 374.11 576.03C363.07 587.09 352.36 597.62 341.98 606.91C331.65 614.69 321.62 620.04 311.89 622.48C302.16 622.27 292.93 618.96 284.19 612.87C275.41 604.87 267.08 595.08 259.2 584.21C251.25 573.17 243.71 562.27 236.53 552.08C229.22 543.29 222.2 535.92 215.41 530.11C208.36 526.25 201.4 523.88 194.47 522.76C187.11 523.12 179.64 524.12 171.98 525.39C163.82 527.15 155.4 528.5 146.76 529.13C137.7 529.39 128.52 528.5 119.35 526.37C110.13 523.42 101.2 519.14 92.7801 513.6C84.8201 507.23 77.6901 499.75 71.5701 491.34C66.2301 482.33 62.0001 472.61 58.8901 462.39C56.3801 451.83 54.7301 440.97 53.7301 429.96C52.7001 418.82 51.8201 407.65 50.9001 396.56C49.2601 385.45 47.2501 374.46 44.8501 363.67C41.6301 352.89 38.2201 342.31 34.8301 331.96C31.3101 321.62 28.4101 311.5 26.4401 301.62C25.2101 291.74 25.3501 282.31 26.8501 273.33C29.1901 264.33 32.6501 255.75 36.9601 247.59C41.4301 239.38 46.2001 231.55 50.9801 224.08C55.1501 216.51 58.9901 209.25 62.4201 202.26C65.0201 195.09 67.3401 188.09 69.5101 181.23C71.2901 174.07 73.3401 166.93 75.8801 159.75C78.6801 152.18 82.3301 144.47 86.9201 136.6C92.1801 128.29 98.4701 119.79 105.72 111.13C113.62 102.13 122.3 93.07 131.61 84.04C141.27 74.96 151.31 66.15 161.55 57.78C171.82 49.75 182.11 42.46 192.36 36.08C202.42 30.42 212.38 25.87 222.22 22.56C231.83 20.06 241.36 18.77 250.87 18.62C260.18 18.99 269.55 20.19 279.02 22.04C288.38 23.76 297.93 25.64 307.72 27.46C317.46 28.49 327.5 29.09 337.84 29.18" stroke="url(#paint0_linear_19_6909)" stroke-width="2" stroke-linecap="round" stroke-dasharray="6 3"/>
<path opacity="0.19" d="M358.712 42.8067C368.753 42.5735 378.735 41.9051 388.607 40.9483C398.493 39.3608 408.182 37.8797 417.569 36.6881C426.824 35.5273 435.616 35.0957 443.806 35.5237C451.686 36.5213 458.775 38.626 464.944 41.8386C470.638 45.8097 475.283 50.8695 478.838 56.8949C481.928 63.5291 484.002 70.9236 485.172 78.9159C486.272 87.184 486.876 95.8079 487.315 104.641C488.487 113.455 490.187 122.317 492.848 131.187C497.179 139.853 503.076 148.47 510.771 157.044C520.45 165.346 531.816 173.617 544.556 181.866C558.211 189.807 572.077 197.734 585.283 205.634C597.122 213.157 606.639 220.636 612.992 228.062C616.094 235.088 615.339 242.092 610.783 249.108C603.571 255.847 593.96 262.757 583.067 269.938C572.906 277.12 564.123 284.8 557.964 293.076C555.818 301.606 557.572 310.843 563.155 320.791C572.289 330.99 583.113 341.529 594.132 352.292C604.472 363.027 612.144 373.774 616.162 384.444C616.468 394.871 612.364 405.148 604.233 415.24C593.03 425.105 579.38 434.838 564.437 444.439C549.373 453.901 535.049 463.245 522.281 472.408C511.772 481.4 503.671 490.071 497.96 498.249C494.143 509.578 495.524 526.788 497.466 531.928C498.466 534.665 492.693 533.505 485.357 530.641C478.938 528.845 471.243 527.078 462.507 525.719C452.995 525.559 442.749 526.409 431.993 528.527C420.792 532.407 409.338 537.743 397.795 544.467C386.069 552.661 374.419 561.753 362.968 571.3C351.532 581.058 340.39 590.216 329.634 598.148C318.999 604.655 308.813 608.918 299.117 610.509C289.592 609.686 280.757 606.034 272.582 599.853C264.485 591.862 256.928 582.186 249.859 571.411C242.711 560.35 235.894 549.282 229.331 538.724C222.51 529.28 215.805 521.017 209.125 514.119C202.033 508.926 194.843 505.12 187.508 502.527C179.682 501.343 171.632 500.905 163.363 500.892C154.637 501.519 145.744 501.963 136.722 501.948C127.489 501.807 118.328 500.789 109.399 498.765C100.65 496.162 92.4332 492.424 84.9348 487.594C78.0551 482.095 72.1592 475.584 67.357 468.207C63.3544 460.295 60.4528 451.7 58.6216 442.568C57.296 433.091 56.7175 423.256 56.6774 413.178C56.4811 402.898 56.3539 392.494 56.0798 382.038C55.0518 371.47 53.6327 360.903 51.7862 350.427C49.1723 339.887 46.369 329.474 43.6029 319.243C40.7256 309.025 38.4648 299.021 37.107 289.291C36.4872 279.613 37.1846 270.45 39.199 261.8C42.0634 253.181 46.0282 245.02 50.8447 237.29C55.8942 229.526 61.2604 222.106 66.6852 214.99C71.5897 207.718 76.1781 200.664 80.3541 193.771C83.7149 186.64 86.7294 179.585 89.5103 172.573C91.7929 165.236 94.2066 157.887 96.9352 150.481C99.7882 142.733 103.339 134.894 107.698 126.971C112.631 118.728 118.532 110.413 125.376 102.085C132.883 93.5826 141.227 85.1695 150.278 76.9468C159.784 68.8263 169.773 61.1009 180.073 53.9388C190.534 47.199 201.099 41.2586 211.657 36.26C222.125 31.9769 232.486 28.7789 242.695 26.7431C252.721 25.4462 262.58 25.2503 272.315 26.0882C281.88 27.3453 291.373 29.339 300.857 31.8835C310.264 34.2521 319.742 36.7461 329.326 39.1573C338.934 40.7983 348.731 42.0416 358.701 42.8159" stroke="url(#paint1_linear_19_6909)" stroke-width="2" stroke-linecap="round" stroke-dasharray="1 1"/>
<path opacity="0.24" d="M374.108 57.4587C383.721 57.9042 393.142 57.9186 402.316 57.615C411.546 56.7032 420.418 55.8215 428.826 55.1466C437.109 54.4337 444.782 54.311 451.708 54.9004C461.213 56.9568 475.005 66.8839 479.174 74.7277C481.381 80.879 482.806 87.7777 483.645 95.3105C484.69 103.246 485.601 111.627 486.694 120.368C488.732 129.273 491.546 138.409 495.476 147.724C501.009 157.054 508.009 166.512 516.562 176.059C526.667 185.493 537.997 194.969 550.147 204.441C562.639 213.628 574.804 222.708 585.844 231.598C595.258 239.985 602.19 248.079 606.027 255.836C606.899 262.999 604.311 269.843 598.455 276.446C590.506 282.64 580.665 288.849 569.97 295.249C560.214 301.712 551.874 308.739 545.989 316.469C543.779 324.71 545.04 333.828 549.68 343.829C557.518 354.285 566.894 365.15 576.515 376.212C585.679 387.22 592.582 398.068 596.331 408.589C596.853 418.642 593.404 428.212 586.198 437.28C576.041 445.857 563.327 454.021 549.011 461.806C534.147 469.322 519.488 476.604 505.839 483.605C493.892 490.494 483.927 497.079 476.112 503.251C466.89 524.314 464.409 528.699 459.768 526.242C455.356 524.879 449.664 523.636 442.832 522.818C435.147 523.161 426.504 524.419 417.067 526.796C407.026 530.714 396.427 535.865 385.465 542.147C374.172 549.624 362.744 557.768 351.34 566.169C339.897 574.634 328.677 582.445 317.829 589.066C307.192 594.343 297.04 597.548 287.477 598.321C278.212 596.915 269.746 592.946 262.012 586.667C254.484 578.72 247.527 569.177 241.046 558.55C234.52 547.534 228.266 536.374 222.158 525.538C215.739 515.547 209.285 506.51 202.711 498.607C195.644 492.18 188.343 486.972 180.781 482.899C172.696 480.155 164.349 478.193 155.765 476.762C146.794 476.064 137.717 475.402 128.651 474.519C119.512 473.726 110.62 472.332 102.154 470.211C94.0381 467.756 86.6247 464.411 80.1043 460.183C74.2779 455.477 69.5227 449.913 65.9053 443.592C63.0554 436.845 61.2783 429.441 60.495 421.513C60.1003 413.265 60.3515 404.595 61.0323 395.601C61.4669 386.35 61.8772 376.843 62.1092 367.17C61.5617 357.295 60.6168 347.303 59.2631 337.273C57.1894 327.121 54.949 317.006 52.7736 307.001C50.5276 296.996 48.8786 287.196 48.1179 277.685C48.0814 268.266 49.2997 259.4 51.7772 251.055C55.1174 242.823 59.5216 235.065 64.7845 227.732C70.3331 220.379 76.261 213.342 82.274 206.56C87.8696 199.587 93.1938 192.748 98.1433 185.986C102.327 178.924 106.117 171.867 109.61 164.767C112.545 157.326 115.477 149.834 118.58 142.275C121.656 134.409 125.254 126.496 129.519 118.577C134.219 110.447 139.778 102.378 146.19 94.4205C153.212 86.4381 161.067 78.7054 169.629 71.3256C178.684 64.1774 188.289 57.5618 198.255 51.6034C208.471 46.1653 218.849 41.5785 229.284 37.939C239.708 35.0152 250.046 33.1295 260.218 32.3414C270.274 32.2237 280.141 33.0891 289.805 34.8752C299.36 37.0094 308.767 39.7589 318.059 42.9667C327.34 45.961 336.6 49.033 345.854 52.0033C355.204 54.2296 364.619 56.0711 374.098 57.4573" stroke="url(#paint2_linear_19_6909)" stroke-width="2" stroke-linecap="round" stroke-dasharray="1 10"/>
<path opacity="0.84" d="M384.244 72.2087C393.306 73.2548 402.094 73.8635 410.538 74.1221C419.064 73.8053 427.143 73.4331 434.668 73.1571C442.097 72.809 448.837 72.9063 454.79 73.571C462.92 75.5316 474.341 84.4996 477.765 91.6069C479.729 97.2756 481.158 103.719 482.267 110.841C483.777 118.478 485.407 126.704 487.443 135.415C490.486 144.487 494.404 153.96 499.414 163.781C505.816 173.788 513.459 184.062 522.31 194.524C532.247 204.973 542.908 215.486 553.875 225.951C564.703 236.111 574.766 246.025 583.392 255.579C590.25 264.508 594.623 272.914 596.081 280.744C594.916 287.838 590.755 294.401 583.833 300.534C575.362 306.212 565.467 311.809 555.061 317.542C545.753 323.449 537.863 329.948 532.239 337.229C529.941 345.215 530.702 354.195 534.428 364.138C541.006 374.705 548.974 385.703 557.215 396.862C565.211 407.969 571.321 418.762 574.746 429.01C575.435 438.66 572.597 447.542 566.354 455.611C557.341 463.003 545.78 469.685 532.444 475.729C518.24 481.383 503.801 486.608 489.898 491.436C477.148 496.175 465.951 500.593 456.582 504.646C439.445 518.527 435.867 521.093 432.979 519.44C427.945 518.543 410.869 520.143 399.124 523.779C390.274 527.841 380.666 532.856 370.482 538.749C359.892 545.577 348.977 552.827 337.923 560.15C326.819 567.42 315.849 573.973 305.183 579.343C294.785 583.472 284.87 585.68 275.542 585.681C266.646 583.719 258.56 579.457 251.223 573.094C244.183 565.2 237.734 555.797 231.717 545.33C225.717 534.407 219.919 523.21 214.191 512.161C208.166 501.734 202.007 492.024 195.622 483.227C188.746 475.665 181.554 469.15 174.039 463.66C166.017 459.39 157.703 455.907 149.19 453.015C140.372 450.927 131.508 449.054 122.767 447.177C114.067 445.585 105.755 443.667 97.9997 441.296C90.6833 438.835 84.19 435.732 78.6726 431.991C73.8692 427.973 70.1598 423.289 67.5891 417.971C65.6877 412.346 64.7985 406.152 64.8091 399.434C65.0965 392.428 65.9142 384.953 67.0707 377.091C67.9041 368.924 68.6796 360.407 69.222 351.594C69.0171 342.499 68.4332 333.168 67.4847 323.677C65.8875 314.017 64.1596 304.297 62.5254 294.618C60.8716 284.935 59.8037 275.429 59.6108 266.183C60.1218 257.087 61.8256 248.534 64.7297 240.536C68.4809 232.688 73.2747 225.321 78.9176 218.381C84.9174 211.446 91.3151 204.801 97.8846 198.357C104.135 191.731 110.179 185.164 115.895 178.598C120.903 171.706 125.538 164.744 129.835 157.689C133.533 150.28 137.119 142.775 140.751 135.199C144.206 127.35 148.03 119.497 152.333 111.697C156.907 103.781 162.195 96.0182 168.199 88.491C174.702 81.071 181.963 74.0284 189.885 67.4758C198.263 61.2767 207.18 55.7148 216.505 50.9158C226.088 46.6834 235.887 43.3464 245.764 40.9775C255.706 39.3077 265.587 38.6374 275.332 38.9811C285.02 39.9262 294.516 41.7609 303.797 44.4086C313.024 47.3104 322.084 50.7493 330.964 54.5485C339.895 58.113 348.748 61.702 357.518 65.1603C366.45 67.9069 375.36 70.2806 384.234 72.2066" stroke="url(#paint3_linear_19_6909)" stroke-width="2" stroke-linecap="round" stroke-dasharray="7 8"/>
<path opacity="0.65" d="M389.982 86.3634C398.418 87.9334 406.539 89.0476 414.278 89.7909C422.15 89.9687 429.52 90.043 436.337 90.1235C446.14 90.2468 461.869 93.0241 467.645 96.3012C472.452 101.234 479.18 116.135 481.954 126.039C484.244 133.511 486.806 141.667 489.87 150.457C493.875 159.738 498.69 169.567 504.451 179.867C511.287 190.479 519.068 201.427 527.645 212.606C536.838 223.818 546.304 235.056 555.61 246.165C564.405 256.918 572.127 267.276 578.23 277.114C582.535 286.222 584.474 294.623 583.749 302.263C580.801 309.093 575.318 315.26 567.601 320.874C558.781 326.054 548.956 331.109 538.923 336.271C530.085 341.727 522.629 347.802 517.236 354.703C514.831 362.461 515.095 371.251 517.94 381.05C523.312 391.581 529.937 402.528 536.871 413.595C543.708 424.634 549.022 435.221 552.105 445.131C552.898 454.325 550.639 462.551 545.357 469.714C537.545 476.05 527.298 481.41 515.219 485.906C502.047 489.866 488.314 493.206 474.72 496.035C461.794 498.713 449.994 501.061 439.656 503.074C415.162 509.886 408.223 510.946 406.069 510.259C402.296 510.561 388.432 514.426 378.306 518.758C370.528 523.001 361.879 527.95 352.516 533.493C342.739 539.749 332.51 546.197 322.021 552.538C311.494 558.722 301.005 564.127 290.742 568.357C280.788 571.449 271.276 572.764 262.33 572.056C253.887 569.609 246.229 565.068 239.305 558.637C232.756 550.805 226.752 541.559 221.178 531.26C215.667 520.46 210.324 509.291 205.018 498.103C199.442 487.346 193.699 477.092 187.689 467.542C181.229 459.007 174.422 451.35 167.285 444.576C159.699 438.921 151.842 434.021 143.824 429.75C135.568 426.338 127.35 423.259 119.327 420.372C111.407 417.952 103.965 415.431 97.1603 412.72C88.0808 408.663 75.6688 398.392 72.5925 392.014C71.346 384.854 73.0888 367.702 75.0738 357.761C76.1045 350.647 77.0353 343.087 77.7574 335.134C77.7541 326.846 77.4142 318.21 76.7827 309.323C75.5723 300.206 74.2965 290.955 73.1719 281.686C72.0501 272.407 71.5253 263.26 71.8581 254.35C72.8633 245.636 75.0066 237.449 78.2948 229.802C82.405 222.372 87.5341 215.415 93.5022 208.867C99.8781 202.386 106.701 196.159 113.745 190.1C120.578 183.875 127.29 177.669 133.738 171.406C139.579 164.831 145.053 158.12 150.18 151.276C154.702 144.081 159.038 136.769 163.302 129.383C167.274 121.747 171.44 114.126 175.923 106.596C180.502 99.021 185.597 91.6788 191.262 84.6685C197.267 77.8504 203.892 71.514 211.085 65.769C218.644 60.4526 226.699 55.8633 235.12 52.0982C243.78 48.9438 252.676 46.7011 261.673 45.4353C270.754 44.8182 279.823 45.1764 288.774 46.4791C297.717 48.3107 306.512 50.9425 315.099 54.2947C323.702 57.8392 332.127 61.8213 340.382 66.0981C348.733 70.1211 356.984 74.1259 365.125 77.9736C373.477 81.1642 381.77 83.9837 389.972 86.3606" stroke="url(#paint4_linear_19_6909)" stroke-width="2" stroke-linecap="round" stroke-dasharray="11 2"/>
<path opacity="0.13" d="M392.661 99.6135C400.439 101.612 407.902 103.165 415.007 104.33C422.282 104.971 429.108 105.448 435.412 105.892C444.583 106.453 459.625 109.59 465.458 112.791C470.641 117.5 479.101 131.865 483.174 141.589C486.355 149.015 489.861 157.209 493.854 166.137C498.586 175.635 503.984 185.752 510.088 196.415C516.914 207.43 524.312 218.803 532.114 230.411C540.099 242.012 547.953 253.565 555.292 264.896C561.85 275.801 567.13 286.183 570.728 295.892C572.618 304.803 572.331 312.881 569.701 320.086C565.249 326.482 558.715 332.134 550.432 337.184C541.454 341.893 531.819 346.446 522.215 351.118C513.845 356.2 506.797 361.918 501.625 368.476C499.084 375.99 498.877 384.545 500.896 394.089C505.116 404.454 510.477 415.196 516.174 426.008C521.903 436.821 526.442 447.101 529.165 456.584C530.028 465.33 528.298 472.93 523.956 479.314C517.363 484.752 508.503 489.025 497.862 492.228C486.005 494.77 473.375 496.516 460.547 497.614C447.994 498.515 436.156 499.008 425.393 499.182C415.893 499.491 407.816 499.577 401.182 499.449C386.356 499.055 376.712 500.333 371.508 502.372C367.128 504.777 361.744 507.709 355.379 511.195C348.394 515.583 340.528 520.457 331.926 525.678C322.919 531.421 313.419 537.143 303.592 542.595C293.756 547.809 283.886 552.191 274.175 555.416C264.829 557.592 255.875 558.123 247.415 556.79C239.527 553.93 232.368 549.176 225.899 542.693C219.879 534.959 214.372 525.89 209.264 515.795C204.291 505.185 199.479 494.113 194.677 482.895C189.699 471.953 184.55 461.331 179.142 451.211C173.363 441.925 167.258 433.35 160.852 425.537C154.07 418.716 147.067 412.612 139.965 407.154C132.675 402.554 125.472 398.412 118.528 394.61C111.72 391.392 105.409 388.302 99.7518 385.23C92.339 381.022 82.8795 371.777 80.9619 366.447C80.5381 360.59 83.1337 346.382 85.2556 337.893C86.2999 331.724 87.259 325.034 88.014 317.885C88.0972 310.361 87.9214 302.411 87.5222 294.113C86.6206 285.587 85.7412 276.856 85.0578 268.027C84.412 259.212 84.3929 250.489 85.2026 241.975C86.6505 233.696 89.1806 225.921 92.8084 218.668C97.2185 211.691 102.611 205.173 108.846 199.059C115.507 193.06 122.667 187.298 130.119 181.697C137.449 175.966 144.738 170.23 151.849 164.428C158.434 158.316 164.705 152.046 170.654 145.636C176.001 138.866 181.104 131.974 186.059 124.995C190.618 117.786 195.228 110.617 199.985 103.566C204.66 96.5062 209.672 89.7193 215.074 83.3209C220.626 77.1486 226.652 71.5446 233.104 66.577C239.789 62.0784 246.879 58.358 254.276 55.4855C261.841 53.2287 269.63 51.8963 277.51 51.5032C285.479 51.7393 293.451 52.893 301.349 54.9144C309.282 57.4178 317.093 60.6324 324.744 64.4812C332.452 68.4678 340.031 72.8333 347.46 77.4314C355.036 81.7746 362.526 86.0645 369.925 90.1935C377.568 93.7193 385.155 96.8733 392.651 99.61" stroke="url(#paint5_linear_19_6909)" stroke-width="2" stroke-linecap="round"/>
<path opacity="0.98" d="M393.818 112.103C400.918 114.456 407.773 116.38 414.349 117.948C421.137 119.019 427.543 119.919 433.538 120.754C442.388 121.876 457.553 125.754 463.899 129.149C467.988 132.098 471.701 135.787 475.159 140.261C478.777 145.378 482.336 151.334 485.955 158.129C489.96 165.602 494.235 173.888 498.881 182.933C504.034 192.557 509.63 202.83 515.628 213.646C522.006 224.787 528.599 236.255 535.208 247.884C541.657 259.451 547.653 270.881 552.866 281.98C557.136 292.566 560.057 302.545 561.316 311.732C561.03 320.113 558.814 327.593 554.604 334.142C548.958 339.935 541.661 344.984 533.048 349.452C524.075 353.67 514.739 357.768 505.602 362.011C497.697 366.754 491.046 372.149 486.062 378.371C483.376 385.628 482.717 393.886 483.973 403.082C487.138 413.149 491.316 423.551 495.879 433.974C500.565 444.441 504.35 454.326 506.717 463.343C507.587 471.641 506.325 478.706 502.856 484.437C497.431 489.178 489.984 492.614 480.872 494.828C470.498 496.287 459.218 496.812 447.525 496.549C435.751 496.029 424.355 495.032 413.675 493.689C403.834 492.504 395.105 491.162 387.572 489.722C372.684 486.934 359.942 485.397 356.525 486.118C352.449 488.253 340.169 495.577 331.577 500.898C325.043 505.326 317.705 510.028 309.668 514.898C301.317 520.12 292.468 525.161 283.301 529.785C274.168 534.139 264.981 537.614 255.914 539.947C247.247 541.342 238.921 541.201 231.062 539.34C223.802 536.148 217.216 531.242 211.282 524.765C205.854 517.188 200.908 508.348 196.351 498.52C192.006 488.196 187.828 477.333 183.698 466.24C179.468 455.298 175.1 444.514 170.541 434.083C165.695 424.312 160.582 415.111 155.24 406.564C149.593 398.889 143.799 391.883 137.936 385.514C131.947 379.988 126.082 374.99 120.491 370.454C112.535 364.766 100.052 355.176 96.0117 350.801C93.0635 341.907 95.6743 325.294 97.709 317.974C98.6489 312.574 99.5175 306.626 100.226 300.156C100.315 293.309 100.228 285.977 100.013 278.269C99.3675 270.302 98.8193 262.093 98.5348 253.762C98.3131 245.437 98.7298 237.18 99.969 229.118C101.805 221.313 104.672 213.995 108.572 207.186C113.205 200.696 118.796 194.659 125.218 189.019C132.077 183.553 139.474 178.329 147.213 173.27C154.913 168.128 162.658 162.984 170.31 157.777C177.536 152.301 184.504 146.665 191.18 140.875C197.283 134.773 203.121 128.529 208.732 122.205C213.901 115.671 218.98 109.163 224.062 102.798C228.924 96.4328 233.931 90.3528 239.148 84.6849C244.344 79.2596 249.826 74.3911 255.591 70.2094C261.436 66.4585 267.556 63.5112 273.898 61.4096C280.335 59.8771 286.924 59.247 293.596 59.5312C300.312 60.3729 307.059 62.0728 313.759 64.5848C320.488 67.4939 327.158 71.0678 333.722 75.1965C340.374 79.4201 346.946 83.9693 353.428 88.7191C360.091 93.2108 366.73 97.6587 373.3 101.944C380.165 105.671 387.008 109.081 393.809 112.099" stroke="url(#paint6_linear_19_6909)" stroke-width="2" stroke-linecap="round" stroke-dasharray="10 4"/>
<path opacity="0.22" d="M394.857 124.371C401.314 127.016 407.622 129.286 413.76 131.237C420.127 132.743 426.247 134.094 432.078 135.391C440.821 137.188 456.588 142.241 463.631 146.121C468.26 149.316 472.639 153.227 476.853 157.89C481.201 163.148 485.497 169.24 489.854 176.149C494.451 183.687 499.208 192.026 504.162 201.096C509.37 210.688 514.764 220.88 520.27 231.564C525.835 242.495 531.286 253.66 536.448 264.897C541.199 275.992 545.249 286.847 548.342 297.266C550.449 307.132 551.208 316.318 550.417 324.647C548.285 332.198 544.484 338.841 539.06 344.575C532.546 349.655 524.786 354.031 516.072 357.882C507.249 361.618 498.298 365.273 489.691 369.114C482.248 373.558 475.966 378.627 471.173 384.519C468.356 391.463 467.274 399.364 467.835 408.136C470.029 417.799 473.144 427.753 476.668 437.688C480.372 447.71 483.446 457.13 485.432 465.659C486.266 473.523 485.388 480.136 482.699 485.367C478.357 489.617 472.253 492.476 464.65 494.029C455.814 494.772 446.02 494.465 435.671 493.292C424.992 491.759 414.379 489.683 404.167 487.221C394.42 484.884 385.448 482.419 377.388 479.923C366.987 476.904 351.601 472.533 345.859 471.408C340.903 471.649 330.635 474.948 324.393 478.108C319.73 481.118 314.395 484.47 308.353 488.124C301.939 492.384 294.85 496.78 287.166 501.185C279.264 505.825 270.947 510.162 262.358 514.012C253.858 517.547 245.345 520.201 236.936 521.752C228.969 522.462 221.322 521.754 214.124 519.472C207.542 516.044 201.606 511.079 196.29 504.688C191.508 497.323 187.208 488.81 183.313 479.356C179.686 469.422 176.26 458.926 172.937 448.133C169.603 437.403 166.209 426.72 162.701 416.271C158.994 406.339 155.104 396.854 151.067 387.914C146.802 379.738 142.447 372.171 138.087 365.226C133.613 359.084 129.293 353.5 125.229 348.453C115.17 336.989 106.952 323.665 106.854 319.626C107.468 315.403 110.542 305.066 112.368 298.611C113.158 293.766 113.883 288.388 114.503 282.465C114.566 276.162 114.528 269.374 114.448 262.177C114.022 254.737 113.765 247.048 113.83 239.202C113.982 231.404 114.783 223.647 116.397 216.067C118.543 208.785 121.687 201.971 125.796 195.642C130.583 189.678 136.287 184.162 142.802 179.06C149.749 174.167 157.265 169.547 165.165 165.099C173.093 160.643 181.149 156.2 189.18 151.72C196.869 147.033 204.373 142.202 211.627 137.247C218.361 131.99 224.817 126.618 231.015 121.175C236.724 115.525 242.26 109.919 247.673 104.439C252.741 98.9447 257.805 93.7318 262.893 88.9178C267.827 84.3051 272.87 80.2504 278.019 76.8431C285.754 72.7035 301.788 69.1345 309.986 69.8542C315.466 71.0875 320.962 73.1133 326.435 75.8991C331.935 78.9943 337.417 82.693 342.839 86.9044C348.371 91.1639 353.89 95.7227 359.381 100.46C365.086 104.948 370.804 109.41 376.558 113.743C382.609 117.566 388.708 121.131 394.848 124.367" stroke="url(#paint7_linear_19_6909)" stroke-width="2" stroke-linecap="round" stroke-dasharray="4 5"/>
<path opacity="0.97" d="M396.818 137.215C402.671 140.102 408.501 142.69 414.261 145.032C420.281 146.983 426.167 148.826 431.904 150.645C437.786 152.307 443.462 154.147 448.905 156.241C454.429 158.47 459.706 161.146 464.768 164.349C469.878 167.925 474.812 172.17 479.608 177.122C484.483 182.584 489.293 188.822 494.071 195.821C498.951 203.37 503.832 211.629 508.723 220.545C513.643 229.882 518.495 239.72 523.183 249.928C527.681 260.288 531.816 270.773 535.417 281.205C538.433 291.419 540.614 301.308 541.77 310.665C541.961 319.472 540.869 327.538 538.398 334.755C534.806 341.274 529.85 346.919 523.581 351.722C516.534 355.996 508.577 359.671 499.99 362.9C491.478 366.142 483.003 369.382 474.954 372.846C467.984 376.98 462.066 381.732 457.454 387.263C454.533 393.864 453.069 401.34 453.007 409.631C454.336 418.79 456.497 428.204 459.071 437.584C461.876 447.085 464.267 456.005 465.869 464.06C466.3 474.639 458.101 487.841 449.455 490.323C442.112 490.706 433.816 489.978 424.884 488.291C415.449 486.203 405.865 483.489 396.402 480.342C387.081 477.249 378.229 474.015 369.981 470.761C362.242 467.936 355.187 465.284 348.813 462.884C340.273 460.428 325.775 458.485 319.029 459.105C312.138 461.3 296.425 468.648 287.198 473.543C280.609 477.374 273.525 481.258 266.001 485.053C258.357 488.998 250.417 492.589 242.317 495.629C234.345 498.372 226.434 500.254 218.672 501.094C211.361 501.202 204.397 500.015 197.89 497.413C191.998 493.839 186.739 488.891 182.107 482.671C178.021 475.624 174.432 467.532 171.277 458.566C168.444 449.165 165.862 439.2 163.46 428.912C161.125 418.631 158.811 408.316 156.488 398.149C154.037 388.386 151.512 378.967 148.926 370.018C146.158 361.711 143.362 353.954 140.605 346.791C136.391 337.403 129.036 322.395 126.32 316.512C123.515 307.649 124.378 295.865 125.985 291.474C127.395 286.402 129.916 273.477 130.729 265.46C130.774 259.572 130.785 253.213 130.84 246.467C130.621 239.5 130.629 232.287 131.014 224.945C131.502 217.646 132.627 210.406 134.547 203.349C136.958 196.603 140.298 190.314 144.545 184.517C149.401 179.104 155.128 174.148 161.625 169.621C168.545 165.36 176.035 161.378 183.946 157.626C191.939 153.915 200.119 150.262 208.338 146.623C216.298 142.831 224.129 138.946 231.763 134.96C238.944 130.735 245.848 126.405 252.488 122.027C258.626 117.45 264.527 112.911 270.2 108.489C275.473 104.027 280.607 99.8203 285.62 95.9745C292.706 90.6837 306.462 83.3995 313.217 81.7565C319.824 81.4515 332.971 85.2846 339.475 89.2572C343.827 92.3657 348.178 96.0181 352.527 100.142C356.987 104.277 361.482 108.695 366.025 113.297C370.796 117.652 375.65 122.025 380.616 126.314C385.879 130.153 391.287 133.799 396.809 137.21" stroke="url(#paint8_linear_19_6909)" stroke-width="2" stroke-linecap="round"/>
<path opacity="0.62" d="M400.165 151.457C405.47 154.556 410.844 157.444 416.259 160.176C421.95 162.565 427.621 164.915 433.245 167.279C439.041 169.51 444.742 171.919 450.315 174.606C455.985 177.377 461.5 180.58 466.859 184.265C472.263 188.243 477.51 192.838 482.617 198.063C487.735 203.694 492.723 210.024 497.588 216.995C502.402 224.388 507.079 232.389 511.563 240.905C515.9 249.723 519.947 258.899 523.631 268.317C526.948 277.762 529.7 287.214 531.777 296.503C533.201 305.499 533.727 314.095 533.225 322.132C531.843 329.608 529.301 336.367 525.572 342.326C520.947 347.664 515.226 352.231 508.504 356.049C501.26 359.495 493.378 362.46 485.109 365.089C477.039 367.853 469.116 370.688 461.661 373.78C455.183 377.604 449.64 382.03 445.218 387.193C442.211 393.386 440.429 400.394 439.832 408.138C440.395 416.735 441.705 425.548 443.423 434.313C445.403 443.246 447.136 451.637 448.339 459.228C448.679 469.276 442.311 481.923 435.404 484.288C429.403 484.614 422.521 483.807 414.969 482.022C406.817 479.771 398.354 476.844 389.809 473.422C381.146 469.975 372.684 466.34 364.557 462.654C356.649 459.328 349.174 456.173 342.162 453.283C335.436 451.001 329.116 449.093 323.099 447.618C314.435 446.704 297.444 448.227 288.598 450.544C282.472 452.826 276.052 455.389 269.294 458.126C262.37 461.273 255.14 464.432 247.639 467.453C240.102 470.572 232.422 473.312 224.703 475.515C217.172 477.446 209.776 478.57 202.623 478.756C195.919 478.315 189.613 476.728 183.795 473.885C178.577 470.229 174.013 465.38 170.084 459.433C166.693 452.789 163.847 445.218 161.477 436.866C159.455 428.126 157.749 418.873 156.313 409.285C154.996 399.673 153.804 389.991 152.688 380.39C151.525 371.09 150.377 362.074 149.238 353.45C147.964 345.347 146.722 337.74 145.549 330.68C143.678 321.28 140.744 306.07 139.949 300.083C139.882 290.981 142.767 279.135 144.43 274.834C145.732 269.894 147.906 257.462 148.632 249.813C148.69 244.218 148.785 238.203 148.99 231.835C148.979 225.271 149.253 218.506 149.918 211.632C150.702 204.833 152.114 198.124 154.29 191.593C156.895 185.389 160.358 179.656 164.662 174.418C169.505 169.576 175.156 165.206 181.533 161.283C188.299 157.659 195.638 154.369 203.396 151.338C211.27 148.418 219.369 145.614 227.557 142.875C235.566 140.041 243.507 137.182 251.29 134.269C258.686 131.171 265.842 127.995 272.718 124.812C279.126 121.421 285.263 118.078 291.108 114.844C299.103 109.989 313.455 101.829 319.948 98.9467C331.533 96.7215 347.559 100.945 352.621 104.932C357.687 109.705 368.104 121.397 373.608 127.87C377.529 132.024 381.614 136.223 385.864 140.42C390.424 144.211 395.183 147.901 400.156 151.451" stroke="url(#paint9_linear_19_6909)" stroke-width="2" stroke-linecap="round" stroke-dasharray="5 5"/>
<path opacity="0.46" d="M404.738 167.7C409.535 170.981 414.487 174.158 419.546 177.256C424.879 180.061 430.285 182.89 435.725 185.786C447.11 191.233 458.284 197.776 469.056 205.84C479.866 214.739 490.005 225.862 499.321 239.109C508.037 253.447 515.459 269.428 521.05 286.11C524.809 302.493 525.628 318.055 522.817 331.617C516.974 343.189 507.215 352.033 494.027 358.117C479.591 363.322 464.261 367.726 449.906 372.62C443.93 376.108 438.769 380.198 434.555 384.964C431.493 390.722 429.463 397.228 428.407 404.392C428.312 412.374 428.862 420.537 429.821 428.667C431.046 437.011 432.159 444.852 432.925 451.991C432.919 464.881 429.527 473.156 422.455 476.513C411.866 476.797 398.552 473.108 383.764 466.708C367.867 459.836 352.248 452.452 337.503 445.615C323.152 440.768 309.624 437.515 296.517 436.037C283.285 437.081 269.675 439.587 255.423 443.018C240.823 447.768 225.775 452.072 210.815 454.9C203.659 455.98 196.723 456.367 190.126 455.926C181.117 453.984 166.579 443.988 161.393 436.055C158.675 429.868 156.546 422.896 154.94 415.279C152.734 399.062 151.86 381.497 151.86 363.769C151.843 346.894 152.12 331.202 152.727 317.327C152.819 305.416 153.438 295.477 154.866 287.396C155.797 280.716 157.636 275.007 160.329 269.682C162.008 264.191 164.055 257.883 166.24 250.302C166.821 241.394 167.464 230.872 168.473 218.98C168.697 212.776 169.229 206.426 170.16 200.009C171.219 193.689 172.884 187.489 175.247 181.504C177.998 175.848 181.518 170.663 185.796 165.992C190.546 161.722 196.023 157.94 202.164 154.644C215.483 148.961 230.583 144.519 246.51 140.832C261.996 137.033 277.113 133.248 291.281 129.469C303.82 125.027 315.171 120.886 325.277 117.59C333.859 114.31 341.549 112.635 348.404 113.019C354.399 114.077 359.994 117.407 365.284 122.934C370.519 128.755 375.979 136.133 381.824 144.587C386.763 150.51 398.164 162.171 404.731 167.693" stroke="url(#paint10_linear_19_6909)" stroke-width="2" stroke-linecap="round" stroke-dasharray="3 5"/>
<path opacity="0.24" d="M409.838 186.125C418.805 192.678 428.43 199.287 438.454 206.148C449.222 212.506 459.916 219.911 470.24 228.621C480.52 237.82 489.983 248.794 498.315 261.292C505.797 274.358 511.556 288.437 515.103 302.645C516.749 316.22 515.393 328.7 510.68 339.162C503.503 347.895 493.114 354.29 480.151 358.483C466.555 362.335 452.509 365.817 439.532 370.052C429.448 377.194 422.351 386.888 418.596 399.158C417.903 414.418 418.717 429.627 419.478 443.162C419.054 455.463 416.158 463.715 410.411 467.548C401.73 468.573 390.544 465.783 377.698 460.244C363.33 453.886 348.544 446.726 333.91 439.798C319.013 434.307 304.448 430.136 290.11 427.518C275.509 426.94 260.758 427.685 245.817 429.267C230.759 431.868 215.79 434.121 201.438 435.145C188.117 435.29 176.333 432.838 166.731 427.133C159.264 419.237 154.575 408.28 152.331 394.986C151.496 380.469 152.276 364.848 154.201 349.103C156.238 333.9 158.8 319.676 161.795 307.01C164.217 295.799 167.023 286.296 170.305 278.422C172.798 271.538 175.73 265.506 179.04 259.817C181.159 253.785 183.371 247.074 185.593 239.267C186.367 230.25 187.278 219.924 188.666 208.554C189.618 196.742 192.111 184.873 196.853 173.711C202.923 163.851 211.742 156.014 222.993 150.226C235.537 145.804 249.728 142.815 264.742 140.816C279.525 138.939 294.062 137.34 307.766 135.919C320.094 133.932 331.215 132.246 340.985 131.238C349.282 130.019 356.459 130.055 362.585 131.706C367.802 133.628 372.435 137.373 376.661 142.946C380.824 148.513 385.177 155.472 389.958 163.479C395.579 170.644 402.166 178.252 409.831 186.118" stroke="url(#paint11_linear_19_6909)" stroke-width="2" stroke-linecap="round" stroke-dasharray="11 9"/>
<path opacity="0.26" d="M414.403 206.367C422.438 213.224 431.15 220.349 440.294 227.827C450.156 234.816 459.952 242.744 469.335 251.667C478.62 260.782 486.937 271.156 493.907 282.468C499.928 293.886 504.011 305.724 505.742 317.213C505.717 327.88 502.836 337.283 496.99 344.769C489.264 350.888 478.97 355.1 466.77 357.674C454.373 360.356 441.804 363.069 430.232 366.73C421.049 373.177 414.242 382.008 410.066 393.131C408.322 407.017 407.908 420.926 407.655 433.478C406.653 445.183 403.905 453.439 398.997 457.852C391.723 459.804 382.25 458.201 371.085 453.902C358.262 448.546 344.558 442.073 330.466 435.464C315.67 429.719 300.784 424.853 285.917 421.201C270.654 419.047 255.36 417.989 240.206 417.663C225.05 418.059 210.403 418.245 196.768 417.508C184.185 416.027 173.402 412.552 164.967 406.57C158.515 398.846 154.895 388.842 153.81 377.087C154.078 364.296 156.139 350.678 159.54 337.035C163.123 323.659 167.422 311.091 172.189 299.805C176.381 289.469 180.835 280.531 185.486 272.9C189.216 265.845 193.034 259.446 196.894 253.291C199.501 246.642 202.017 239.406 204.43 231.3C205.613 222.092 206.962 211.909 208.821 201.02C210.395 189.824 213.38 178.834 218.358 168.723C224.456 159.891 232.88 153.128 243.35 148.466C254.942 145.175 267.972 143.495 281.745 143.015C295.448 142.85 309 143.206 321.813 143.936C333.549 144.217 344.138 144.819 353.371 145.954C361.313 146.749 368.045 148.469 373.612 151.393C378.333 154.266 382.359 158.541 385.908 164.255C389.405 169.759 393.024 176.426 397.042 184.087C401.867 190.955 407.611 198.424 414.403 206.367Z" stroke="url(#paint12_linear_19_6909)" stroke-width="2" stroke-linecap="round" stroke-dasharray="4 7"/>
<path opacity="0.97" d="M417.283 227.519C424.383 234.575 432.07 241.988 440.089 249.751C448.805 257.043 457.375 265.064 465.45 273.754C473.413 282.38 480.309 291.735 485.761 301.492C490.309 311.022 492.871 320.461 493.156 329.215C491.954 337.08 488.206 343.646 481.935 348.517C474.322 352.376 464.695 354.793 453.66 356.097C442.707 357.867 431.702 359.967 421.526 363.145C413.271 368.945 406.801 376.893 402.306 386.905C399.71 399.38 398.212 411.97 396.963 423.538C395.287 434.565 392.392 442.77 387.884 447.738C381.561 450.634 373.371 450.323 363.58 447.447C352.194 443.362 339.687 437.931 326.457 431.983C312.307 426.364 297.75 421.168 283.042 416.745C267.865 413.286 252.71 410.629 237.857 408.547C223.099 406.935 209.097 405.208 196.362 402.863C184.656 399.906 174.892 395.521 167.54 389.351C161.988 381.814 159.261 372.702 159.041 362.424C160.086 351.264 163.012 339.583 167.371 327.961C171.967 316.372 177.383 305.44 183.286 295.52C188.658 286.108 194.213 277.741 199.789 270.353C204.413 263.153 208.913 256.401 213.227 249.767C216.372 242.529 219.304 234.799 222.06 226.397C223.823 217.044 225.73 207.025 228.13 196.629C230.365 186.069 233.82 175.947 238.941 166.866C245 159.007 252.923 153.235 262.486 149.569C272.997 147.269 284.685 146.686 296.986 147.461C309.332 148.706 321.564 150.706 333.163 153.228C343.966 155.467 353.73 158.061 362.237 161.103C369.701 163.722 375.957 167.015 381.073 171.157C385.475 175.04 389.137 179.932 392.265 185.901C395.403 191.522 398.573 198.088 402.052 205.502C406.3 212.225 411.334 219.58 417.283 227.519Z" stroke="url(#paint13_linear_19_6909)" stroke-width="2" stroke-linecap="round" stroke-dasharray="4 5"/>
<path opacity="0.67" d="M417.487 248.243C423.649 255.379 430.226 262.816 436.982 270.506C444.383 277.758 451.541 285.458 458.107 293.477C464.613 301.26 470.011 309.307 473.965 317.29C477.849 328.398 473.897 345.641 465.752 350.456C458.762 352.556 450.184 353.63 440.567 354.038C431.176 355.17 421.739 356.848 412.907 359.661C405.567 364.843 399.476 371.934 394.767 380.844C391.496 391.932 389.053 403.204 386.866 413.72C384.469 423.991 381.219 432.009 376.792 437.39C371.007 441.078 363.697 441.986 354.981 440.528C344.866 437.824 333.577 433.631 321.412 428.603C308.307 423.475 294.612 418.307 280.666 413.484C266.229 409.152 251.829 405.276 237.829 401.806C223.965 398.559 210.972 395.252 199.361 391.57C188.718 387.394 180.009 382.264 173.674 375.974C168.933 368.631 166.883 360.337 167.247 351.361C168.757 341.652 172.137 331.69 176.95 321.849C182.041 311.883 187.987 302.432 194.441 293.713C200.441 285.16 206.585 277.316 212.666 270.137C217.876 262.838 222.863 255.781 227.55 248.743C231.226 241.043 234.636 232.943 237.85 224.362C240.278 214.992 242.85 205.24 245.814 195.41C248.694 185.527 252.579 176.275 257.784 168.188C263.739 161.235 271.101 156.361 279.692 153.564C289.051 152.057 299.304 152.321 309.985 154.051C320.809 156.359 331.509 159.587 341.654 163.481C351.278 167.239 360.002 171.413 367.584 175.981C374.417 180.157 380.149 184.808 384.805 190.026C388.958 194.881 392.37 200.429 395.233 206.724C398.18 212.603 401.083 219.194 404.155 226.477C407.978 233.156 412.381 240.422 417.487 248.243Z" stroke="url(#paint14_linear_19_6909)" stroke-width="2" stroke-linecap="round" stroke-dasharray="6 1"/>
<path opacity="0.91" d="M414.422 267.031C419.648 274.084 425.065 281.294 430.512 288.578C436.558 295.478 442.249 302.522 447.303 309.557C452.368 316.264 456.343 322.851 459 329.033C461.341 337.241 456.2 348.345 448.703 350.664C442.63 351.537 435.332 351.747 427.205 351.643C419.385 352.411 411.454 353.838 403.874 356.376C397.408 360.995 391.711 367.281 386.878 375.124C383.11 384.834 379.899 394.781 376.878 404.208C373.774 413.59 370.056 421.252 365.482 426.803C359.961 431.061 353.219 432.967 345.31 432.763C336.277 431.379 326.147 428.455 315.164 424.485C303.329 420.124 290.873 415.354 278.123 410.509C264.954 405.797 251.817 401.204 239.106 396.796C226.568 392.429 214.921 387.996 204.626 383.352C195.209 378.293 187.619 372.664 182.245 366.326C178.248 359.212 176.731 351.63 177.428 343.742C179.13 335.253 182.603 326.708 187.445 318.332C192.588 309.718 198.583 301.473 205.087 293.745C211.254 285.908 217.569 278.517 223.804 271.514C229.324 264.179 234.616 256.928 239.592 249.625C243.751 241.668 247.654 233.397 251.353 224.827C254.48 215.628 257.689 206.289 261.206 197.111C264.691 187.996 268.933 179.637 274.146 172.51C279.943 166.42 286.717 162.328 294.305 160.233C302.517 159.325 311.322 160.183 320.372 162.533C329.609 165.524 338.692 169.542 347.275 174.325C355.559 179.127 363.074 184.396 369.622 190.05C375.694 195.386 380.807 201.079 384.958 207.142C388.831 212.834 392.009 218.963 394.651 225.567C397.474 231.758 400.165 238.449 402.898 245.621C406.332 252.306 410.147 259.443 414.422 267.031Z" stroke="url(#paint15_linear_19_6909)" stroke-width="2" stroke-linecap="round" stroke-dasharray="1 6"/>
<path opacity="0.37" d="M407.992 282.437C412.281 289.246 416.594 296.011 420.78 302.648C425.514 308.947 429.817 315.13 433.495 321.022C439.154 342.067 423.069 349.292 413.415 348.91C407.059 349.555 400.486 350.888 394.027 353.231C388.367 357.352 383.075 362.881 378.213 369.69C374.105 378.067 370.304 386.696 366.579 394.969C362.873 403.354 358.689 410.45 353.882 415.904C348.446 420.429 342.062 423.023 334.777 423.787C326.655 423.531 317.615 421.784 307.831 418.886C297.369 415.445 286.363 411.322 275.1 406.822C263.505 402.181 251.967 397.38 240.859 392.553C229.941 387.613 219.857 382.565 211.02 377.369C202.968 371.846 196.543 365.971 192.077 359.7C188.776 352.876 187.661 345.902 188.498 338.865C190.208 331.359 193.519 323.914 198.064 316.647C202.947 309.087 208.638 301.786 214.819 294.795C220.814 287.549 226.978 280.522 233.102 273.69C238.694 266.436 244.112 259.143 249.259 251.768C253.815 243.798 258.156 235.61 262.299 227.283C266.054 218.487 269.856 209.746 273.84 201.34C277.829 193.064 282.329 185.63 287.488 179.423C293.074 174.141 299.251 170.737 305.882 169.177C312.987 168.687 320.405 169.885 327.909 172.526C335.596 175.832 343.072 180.212 350.106 185.41C357.013 190.735 363.272 196.61 368.732 202.853C373.933 208.898 378.344 215.24 381.954 221.829C385.454 228.093 388.354 234.632 390.756 241.428C393.403 247.875 395.86 254.623 398.262 261.652C401.289 268.296 404.524 275.239 407.992 282.437Z" stroke="url(#paint16_linear_19_6909)" stroke-width="2" stroke-linecap="round" stroke-dasharray="1 9"/>
<path opacity="0.21" d="M398.614 293.401C402.014 299.803 405.288 305.964 408.359 311.796C413.458 319.993 421.097 333.79 422.874 338.947C420.943 344.617 406.836 346.044 399.114 345.73C394.02 346.43 388.642 347.778 383.158 349.982C378.217 353.66 373.326 358.457 368.525 364.281C364.226 371.391 360.025 378.698 355.813 385.784C351.628 393.075 347.077 399.403 342.055 404.497C336.651 408.968 330.548 411.897 323.768 413.309C316.442 413.903 308.399 413.124 299.809 411.195C290.733 408.705 281.231 405.371 271.566 401.457C261.698 397.268 251.918 392.701 242.542 387.902C233.387 382.93 224.98 377.753 217.665 372.406C211.006 366.814 205.744 360.978 202.148 354.9C199.512 348.447 198.719 342.015 199.582 335.645C201.187 328.921 204.175 322.302 208.254 315.837C212.669 309.079 217.829 302.47 223.477 296.037C229.054 289.287 234.851 282.602 240.669 275.973C246.149 268.918 251.542 261.778 256.732 254.557C261.536 246.843 266.185 239.006 270.668 231.159C274.902 223.002 279.155 215.03 283.474 207.504C287.826 200.17 292.482 193.673 297.502 188.354C302.834 183.836 308.41 181.015 314.162 179.855C320.242 179.618 326.422 180.931 332.502 183.582C338.77 186.879 344.783 191.23 350.379 196.41C355.965 201.809 360.999 207.777 365.386 214.148C369.695 220.431 373.369 226.984 376.38 233.709C379.425 240.218 381.974 246.887 384.073 253.668C386.46 260.197 388.642 266.86 390.67 273.625C393.271 280.124 395.925 286.732 398.614 293.401Z" stroke="url(#paint17_linear_19_6909)" stroke-width="2" stroke-linecap="round" stroke-dasharray="5 9"/>
<path opacity="0.75" d="M387.112 299.461C392.833 310.982 397.475 320.922 400.434 328.683C404.511 337.783 396.124 342.57 384.378 341.909C376.512 344.566 367.455 349.991 357.784 358.561C349.388 371.163 340.321 383.221 330.257 392.415C319.37 400.138 306.3 402.863 291.698 401.07C275.95 397.276 259.439 390.39 244.03 381.757C229.509 372.346 218.101 361.767 211.809 350.529C208.55 338.336 211.034 326.358 217.718 314.885C225.687 302.394 235.932 290.012 246.819 277.776C257.058 264.065 267.165 249.893 276.648 235.905C285.591 221.226 294.715 208.104 304.161 198.641C314.435 191.811 324.697 190.964 334.299 195.235C344.497 201.791 353.365 211.851 360.171 223.83C367.103 235.948 372.155 248.955 375.401 262.083C379.836 274.59 383.709 287.209 387.112 299.461Z" stroke="url(#paint18_linear_19_6909)" stroke-width="2" stroke-linecap="round" stroke-dasharray="5 2"/>
<path opacity="0.62" d="M374.499 300.815C378.655 311.097 381.682 319.466 383.288 325.591C385.755 332.849 378.709 336.869 369.416 337.237C363.074 340.147 355.261 345.057 346.261 352.126C337.989 362.291 328.839 371.954 318.908 379.478C308.594 386.291 296.818 389.247 284.224 388.419C271.12 386.078 257.732 380.702 245.545 373.265C234.216 365.154 225.491 355.619 220.851 345.246C218.558 334.321 220.822 323.464 226.504 312.902C233.358 301.602 242.293 290.151 252.021 278.709C261.579 266.197 271.322 253.375 280.643 241.032C289.732 228.405 298.816 217.371 307.736 209.611C317.148 203.986 325.884 203.349 333.569 207.016C341.713 212.64 348.531 221.443 353.637 232.055C359.099 243.088 363.066 255.016 365.588 266.956C369.212 278.606 372.196 290.108 374.499 300.815Z" stroke="url(#paint19_linear_19_6909)" stroke-width="2" stroke-linecap="round" stroke-dasharray="4 9"/>
<path opacity="0.86" d="M361.769 298.348C366.851 318.029 362.109 330.031 354.623 331.537C349.388 334.614 342.611 338.994 334.418 344.636C326.602 352.548 317.867 359.909 308.555 365.652C299.098 371.185 288.76 373.842 278.181 373.509C267.491 372.181 256.932 368.158 247.618 362.068C239.083 355.468 232.689 347.326 229.506 338.116C228.05 328.627 230.128 318.94 234.915 309.341C240.692 299.288 248.31 288.967 256.809 278.646C265.415 267.669 274.399 256.59 283.175 246.163C291.893 235.755 300.519 226.841 308.709 220.682C317.157 216.174 324.567 215.642 330.755 218.57C337.256 223.059 342.493 230.244 346.302 239.068C350.516 248.445 353.545 258.703 355.413 268.987C358.207 279.232 360.356 289.247 361.769 298.348Z" stroke="url(#paint20_linear_19_6909)" stroke-width="2" stroke-linecap="round" stroke-dasharray="9 6"/>
<path opacity="0.78" d="M349.664 293.391C352.108 309.999 346.706 322.234 340.482 324.694C336.041 327.776 330.186 331.538 322.975 335.854C315.894 341.724 308.035 346.983 299.792 350.99C291.526 355.07 282.83 357.07 274.265 356.84C265.801 356.068 257.753 353.12 250.914 348.315C244.709 343.203 240.255 336.576 238.294 328.761C237.527 320.828 239.435 312.492 243.435 304.079C248.199 295.455 254.532 286.539 261.725 277.687C269.133 268.543 277.039 259.466 284.88 251.117C292.747 242.946 300.51 236.08 307.76 231.409C318.229 227.702 333.629 235.68 338.562 245.275C341.799 252.664 344.099 260.9 345.445 269.243C347.491 277.663 348.939 285.916 349.664 293.391Z" stroke="url(#paint21_linear_19_6909)" stroke-width="2" stroke-linecap="round"/>
<path opacity="0.97" d="M338.551 287.536C340.98 299.26 340.115 306.659 336.024 310.259C332.728 315.585 324.875 320.639 312.712 325.728C300.635 334.676 286.253 339.818 273.048 339.186C260.428 337.772 250.594 330.023 247.839 317.485C248.072 304.878 255.838 290.233 267.236 276.208C279.459 261.936 293.436 248.83 305.645 241.54C317.926 237.369 326.362 241.675 330.687 251.102C335.995 262.221 338.741 275.76 338.551 287.536Z" stroke="url(#paint22_linear_19_6909)" stroke-width="2" stroke-linecap="round" stroke-dasharray="2 7"/>
<path opacity="0.95" d="M328.368 282.254C329.364 291.006 327.76 297.332 323.913 301.292C320.529 306.376 313.96 310.917 304.479 314.409C294.9 320.038 284.154 322.644 274.881 321.47C266.084 320.21 259.763 314.581 258.646 305.252C259.199 295.988 265.085 285.034 273.66 274.747C282.805 264.67 293.533 255.755 303.136 251.028C312.647 248.119 319.28 250.78 322.809 256.968C326.884 264.235 328.882 273.569 328.368 282.254Z" stroke="url(#paint23_linear_19_6909)" stroke-width="2" stroke-linecap="round" stroke-dasharray="7 3"/>
<path opacity="0.37" d="M318.706 278.631C319.576 290.322 311.996 299.179 299.028 302.26C285.625 308.976 271.871 305.776 270.916 293.469C272.848 281.515 287.489 265.894 300.851 260.01C313.822 257.403 320.529 267.248 318.706 278.631Z" stroke="url(#paint24_linear_19_6909)" stroke-width="2" stroke-linecap="round" stroke-dasharray="10 2"/>
<defs>
<linearGradient id="paint0_linear_19_6909" x1="30431.1" y1="16.2092" x2="30431.1" y2="60643.3" gradientUnits="userSpaceOnUse">
<stop stop-color="#FBDCFF"/>
<stop offset="1" stop-color="#9F3ECC"/>
</linearGradient>
<linearGradient id="paint1_linear_19_6909" x1="29255.5" y1="2070.44" x2="25142.8" y2="60300.4" gradientUnits="userSpaceOnUse">
<stop stop-color="#FBDCFF"/>
<stop offset="1" stop-color="#9F3ECC"/>
</linearGradient>
<linearGradient id="paint2_linear_19_6909" x1="27952.8" y1="3959.09" x2="20066" y2="59513.1" gradientUnits="userSpaceOnUse">
<stop stop-color="#FBDCFF"/>
<stop offset="1" stop-color="#9F3ECC"/>
</linearGradient>
<linearGradient id="paint3_linear_19_6909" x1="26539.2" y1="5675.11" x2="15236.4" y2="58308.2" gradientUnits="userSpaceOnUse">
<stop stop-color="#FBDCFF"/>
<stop offset="1" stop-color="#9F3ECC"/>
</linearGradient>
<linearGradient id="paint4_linear_19_6909" x1="25031.9" y1="7213.68" x2="10707.2" y2="56648.4" gradientUnits="userSpaceOnUse">
<stop stop-color="#FBDCFF"/>
<stop offset="1" stop-color="#9F3ECC"/>
</linearGradient>
<linearGradient id="paint5_linear_19_6909" x1="23448.1" y1="8568.49" x2="6451.83" y2="54762.9" gradientUnits="userSpaceOnUse">
<stop stop-color="#FBDCFF"/>
<stop offset="1" stop-color="#9F3ECC"/>
</linearGradient>
<linearGradient id="paint6_linear_19_6909" x1="21804.2" y1="9737.69" x2="2520.98" y2="52564.7" gradientUnits="userSpaceOnUse">
<stop stop-color="#FBDCFF"/>
<stop offset="1" stop-color="#9F3ECC"/>
</linearGradient>
<linearGradient id="paint7_linear_19_6909" x1="20117.4" y1="10719.7" x2="-1060.91" y2="50085" gradientUnits="userSpaceOnUse">
<stop stop-color="#FBDCFF"/>
<stop offset="1" stop-color="#9F3ECC"/>
</linearGradient>
<linearGradient id="paint8_linear_19_6909" x1="18235" y1="11406.9" x2="-4442.49" y2="47251.5" gradientUnits="userSpaceOnUse">
<stop stop-color="#FBDCFF"/>
<stop offset="1" stop-color="#9F3ECC"/>
</linearGradient>
<linearGradient id="paint9_linear_19_6909" x1="16530.2" y1="12009.9" x2="-7247.02" y2="44307.8" gradientUnits="userSpaceOnUse">
<stop stop-color="#FBDCFF"/>
<stop offset="1" stop-color="#9F3ECC"/>
</linearGradient>
<linearGradient id="paint10_linear_19_6909" x1="14861.8" y1="12455" x2="-9507.25" y2="41088.5" gradientUnits="userSpaceOnUse">
<stop stop-color="#FBDCFF"/>
<stop offset="1" stop-color="#9F3ECC"/>
</linearGradient>
<linearGradient id="paint11_linear_19_6909" x1="13153.6" y1="12666.2" x2="-11660.2" y2="37969.9" gradientUnits="userSpaceOnUse">
<stop stop-color="#FBDCFF"/>
<stop offset="1" stop-color="#9F3ECC"/>
</linearGradient>
<linearGradient id="paint12_linear_19_6909" x1="11514.3" y1="12726.4" x2="-13265.9" y2="34665.5" gradientUnits="userSpaceOnUse">
<stop stop-color="#FBDCFF"/>
<stop offset="1" stop-color="#9F3ECC"/>
</linearGradient>
<linearGradient id="paint13_linear_19_6909" x1="9921.56" y1="12605" x2="-14473.3" y2="31310.4" gradientUnits="userSpaceOnUse">
<stop stop-color="#FBDCFF"/>
<stop offset="1" stop-color="#9F3ECC"/>
</linearGradient>
<linearGradient id="paint14_linear_19_6909" x1="8388.48" y1="12300.6" x2="-15285.8" y2="27934.7" gradientUnits="userSpaceOnUse">
<stop stop-color="#FBDCFF"/>
<stop offset="1" stop-color="#9F3ECC"/>
</linearGradient>
<linearGradient id="paint15_linear_19_6909" x1="6942.71" y1="11834.9" x2="-15694.3" y2="24590.2" gradientUnits="userSpaceOnUse">
<stop stop-color="#FBDCFF"/>
<stop offset="1" stop-color="#9F3ECC"/>
</linearGradient>
<linearGradient id="paint16_linear_19_6909" x1="5606.64" y1="11235.3" x2="-15603.6" y2="21288.5" gradientUnits="userSpaceOnUse">
<stop stop-color="#FBDCFF"/>
<stop offset="1" stop-color="#9F3ECC"/>
</linearGradient>
<linearGradient id="paint17_linear_19_6909" x1="4390.88" y1="10505.8" x2="-15306.2" y2="18193.3" gradientUnits="userSpaceOnUse">
<stop stop-color="#FBDCFF"/>
<stop offset="1" stop-color="#9F3ECC"/>
</linearGradient>
<linearGradient id="paint18_linear_19_6909" x1="3277.57" y1="9577.14" x2="-14549.9" y2="15123" gradientUnits="userSpaceOnUse">
<stop stop-color="#FBDCFF"/>
<stop offset="1" stop-color="#9F3ECC"/>
</linearGradient>
<linearGradient id="paint19_linear_19_6909" x1="2335.12" y1="8621.01" x2="-13499.4" y2="12346.6" gradientUnits="userSpaceOnUse">
<stop stop-color="#FBDCFF"/>
<stop offset="1" stop-color="#9F3ECC"/>
</linearGradient>
<linearGradient id="paint20_linear_19_6909" x1="1538.96" y1="7564.52" x2="-12008.5" y2="9758.74" gradientUnits="userSpaceOnUse">
<stop stop-color="#FBDCFF"/>
<stop offset="1" stop-color="#9F3ECC"/>
</linearGradient>
<linearGradient id="paint21_linear_19_6909" x1="895.758" y1="6339.71" x2="-10477.2" y2="7366.73" gradientUnits="userSpaceOnUse">
<stop stop-color="#FBDCFF"/>
<stop offset="1" stop-color="#9F3ECC"/>
</linearGradient>
<linearGradient id="paint22_linear_19_6909" x1="435.03" y1="5164.5" x2="-8804.53" y2="5345.14" gradientUnits="userSpaceOnUse">
<stop stop-color="#FBDCFF"/>
<stop offset="1" stop-color="#9F3ECC"/>
</linearGradient>
<linearGradient id="paint23_linear_19_6909" x1="143.458" y1="3918.76" x2="-6751.44" y2="3567.07" gradientUnits="userSpaceOnUse">
<stop stop-color="#FBDCFF"/>
<stop offset="1" stop-color="#9F3ECC"/>
</linearGradient>
<linearGradient id="paint24_linear_19_6909" x1="28.0288" y1="2663.48" x2="-4547.28" y2="2104.95" gradientUnits="userSpaceOnUse">
<stop stop-color="#FBDCFF"/>
<stop offset="1" stop-color="#9F3ECC"/>
</linearGradient>
</defs>
</svg>
