<svg width="782" height="266" viewBox="0 0 782 266" fill="none" xmlns="http://www.w3.org/2000/svg">
<path d="M1 37.4745C12.8056 43.9328 31.9722 75.9745 57.6667 68.4745C83.3611 60.9745 96.5555 2.30785 124.333 1.47451C152.111 0.641179 163.222 62.1828 191 64.4745C218.778 66.7662 229.889 10.3912 257.667 12.4745C285.444 14.5578 296.556 72.3912 324.333 74.4745C352.111 76.5578 363.222 23.0995 391 22.4745C418.778 21.8495 429.889 69.3912 457.667 71.4745C485.444 73.5578 496.556 34.3495 524.333 32.4745C552.111 30.5995 563.222 67.4745 591 62.4745C618.778 57.4745 629.889 8.26618 657.667 8.47451C685.444 8.68285 698.639 57.4328 724.333 63.4745C750.028 69.5162 769.194 42.8912 781 37.4745" stroke="url(#paint0_linear_20_7936)" stroke-width="2" stroke-linecap="round"/>
<path d="M1 227.475C12.8056 233.933 31.9722 265.975 57.6667 258.475C83.3611 250.975 96.5555 192.308 124.333 191.475C152.111 190.641 163.222 252.183 191 254.475C218.778 256.766 229.889 200.391 257.667 202.475C285.444 204.558 296.556 262.391 324.333 264.475C352.111 266.558 363.222 213.1 391 212.475C418.778 211.85 429.889 259.391 457.667 261.475C485.444 263.558 496.556 224.35 524.333 222.475C552.111 220.6 563.222 257.475 591 252.475C618.778 247.475 629.889 198.266 657.667 198.475C685.444 198.683 698.639 247.433 724.333 253.475C750.028 259.516 769.194 232.891 781 227.475" stroke="url(#paint1_linear_20_7936)" stroke-width="2" stroke-linecap="round"/>
<path d="M1 217.475C12.8056 223.933 31.9722 255.975 57.6667 248.475C83.3611 240.975 96.5555 182.308 124.333 181.475C152.111 180.641 163.222 242.183 191 244.475C218.778 246.766 229.889 190.391 257.667 192.475C285.444 194.558 296.556 252.391 324.333 254.475C352.111 256.558 363.222 203.1 391 202.475C418.778 201.85 429.889 249.391 457.667 251.475C485.444 253.558 496.556 214.35 524.333 212.475C552.111 210.6 563.222 247.475 591 242.475C618.778 237.475 629.889 188.266 657.667 188.475C685.444 188.683 698.639 237.433 724.333 243.475C750.028 249.516 769.194 222.891 781 217.475" stroke="url(#paint2_linear_20_7936)" stroke-width="2" stroke-linecap="round"/>
<path d="M1 207.475C12.8056 213.933 31.9722 245.975 57.6667 238.475C83.3611 230.975 96.5555 172.308 124.333 171.475C152.111 170.641 163.222 232.183 191 234.475C218.778 236.766 229.889 180.391 257.667 182.475C285.444 184.558 296.556 242.391 324.333 244.475C352.111 246.558 363.222 193.1 391 192.475C418.778 191.85 429.889 239.391 457.667 241.475C485.444 243.558 496.556 204.35 524.333 202.475C552.111 200.6 563.222 237.475 591 232.475C618.778 227.475 629.889 178.266 657.667 178.475C685.444 178.683 698.639 227.433 724.333 233.475C750.028 239.516 769.194 212.891 781 207.475" stroke="url(#paint3_linear_20_7936)" stroke-width="2" stroke-linecap="round"/>
<path d="M1 197.475C12.8056 203.933 31.9722 235.975 57.6667 228.475C83.3611 220.975 96.5555 162.308 124.333 161.475C152.111 160.641 163.222 222.183 191 224.475C218.778 226.766 229.889 170.391 257.667 172.475C285.444 174.558 296.556 232.391 324.333 234.475C352.111 236.558 363.222 183.1 391 182.475C418.778 181.85 429.889 229.391 457.667 231.475C485.444 233.558 496.556 194.35 524.333 192.475C552.111 190.6 563.222 227.475 591 222.475C618.778 217.475 629.889 168.266 657.667 168.475C685.444 168.683 698.639 217.433 724.333 223.475C750.028 229.516 769.194 202.891 781 197.475" stroke="url(#paint4_linear_20_7936)" stroke-width="2" stroke-linecap="round"/>
<path d="M1 187.475C12.8056 193.933 31.9722 225.975 57.6667 218.475C83.3611 210.975 96.5555 152.308 124.333 151.475C152.111 150.641 163.222 212.183 191 214.475C218.778 216.766 229.889 160.391 257.667 162.475C285.444 164.558 296.556 222.391 324.333 224.475C352.111 226.558 363.222 173.1 391 172.475C418.778 171.85 429.889 219.391 457.667 221.475C485.444 223.558 496.556 184.35 524.333 182.475C552.111 180.6 563.222 217.475 591 212.475C618.778 207.475 629.889 158.266 657.667 158.475C685.444 158.683 698.639 207.433 724.333 213.475C750.028 219.516 769.194 192.891 781 187.475" stroke="url(#paint5_linear_20_7936)" stroke-width="2" stroke-linecap="round"/>
<path d="M1 177.475C12.8056 183.933 31.9722 215.975 57.6667 208.475C83.3611 200.975 96.5555 142.308 124.333 141.475C152.111 140.641 163.222 202.183 191 204.475C218.778 206.766 229.889 150.391 257.667 152.475C285.444 154.558 296.556 212.391 324.333 214.475C352.111 216.558 363.222 163.1 391 162.475C418.778 161.85 429.889 209.391 457.667 211.475C485.444 213.558 496.556 174.35 524.333 172.475C552.111 170.6 563.222 207.475 591 202.475C618.778 197.475 629.889 148.266 657.667 148.475C685.444 148.683 698.639 197.433 724.333 203.475C750.028 209.516 769.194 182.891 781 177.475" stroke="url(#paint6_linear_20_7936)" stroke-width="2" stroke-linecap="round"/>
<path d="M1 167.475C12.8056 173.933 31.9722 205.975 57.6667 198.475C83.3611 190.975 96.5555 132.308 124.333 131.475C152.111 130.641 163.222 192.183 191 194.475C218.778 196.766 229.889 140.391 257.667 142.475C285.444 144.558 296.556 202.391 324.333 204.475C352.111 206.558 363.222 153.1 391 152.475C418.778 151.85 429.889 199.391 457.667 201.475C485.444 203.558 496.556 164.35 524.333 162.475C552.111 160.6 563.222 197.475 591 192.475C618.778 187.475 629.889 138.266 657.667 138.475C685.444 138.683 698.639 187.433 724.333 193.475C750.028 199.516 769.194 172.891 781 167.475" stroke="url(#paint7_linear_20_7936)" stroke-width="2" stroke-linecap="round"/>
<path d="M1 157.475C12.8056 163.933 31.9722 195.975 57.6667 188.475C83.3611 180.975 96.5555 122.308 124.333 121.475C152.111 120.641 163.222 182.183 191 184.475C218.778 186.766 229.889 130.391 257.667 132.475C285.444 134.558 296.556 192.391 324.333 194.475C352.111 196.558 363.222 143.1 391 142.475C418.778 141.85 429.889 189.391 457.667 191.475C485.444 193.558 496.556 154.35 524.333 152.475C552.111 150.6 563.222 187.475 591 182.475C618.778 177.475 629.889 128.266 657.667 128.475C685.444 128.683 698.639 177.433 724.333 183.475C750.028 189.516 769.194 162.891 781 157.475" stroke="url(#paint8_linear_20_7936)" stroke-width="2" stroke-linecap="round"/>
<path d="M1 147.475C12.8056 153.933 31.9722 185.975 57.6667 178.475C83.3611 170.975 96.5555 112.308 124.333 111.475C152.111 110.641 163.222 172.183 191 174.475C218.778 176.766 229.889 120.391 257.667 122.475C285.444 124.558 296.556 182.391 324.333 184.475C352.111 186.558 363.222 133.1 391 132.475C418.778 131.85 429.889 179.391 457.667 181.475C485.444 183.558 496.556 144.35 524.333 142.475C552.111 140.6 563.222 177.475 591 172.475C618.778 167.475 629.889 118.266 657.667 118.475C685.444 118.683 698.639 167.433 724.333 173.475C750.028 179.516 769.194 152.891 781 147.475" stroke="url(#paint9_linear_20_7936)" stroke-width="2" stroke-linecap="round"/>
<path d="M1 137.475C12.8056 143.933 31.9722 175.975 57.6667 168.475C83.3611 160.975 96.5555 102.308 124.333 101.475C152.111 100.641 163.222 162.183 191 164.475C218.778 166.766 229.889 110.391 257.667 112.475C285.444 114.558 296.556 172.391 324.333 174.475C352.111 176.558 363.222 123.1 391 122.475C418.778 121.85 429.889 169.391 457.667 171.475C485.444 173.558 496.556 134.35 524.333 132.475C552.111 130.6 563.222 167.475 591 162.475C618.778 157.475 629.889 108.266 657.667 108.475C685.444 108.683 698.639 157.433 724.333 163.475C750.028 169.516 769.194 142.891 781 137.475" stroke="url(#paint10_linear_20_7936)" stroke-width="2" stroke-linecap="round"/>
<path d="M1 127.475C12.8056 133.933 31.9722 165.975 57.6667 158.475C83.3611 150.975 96.5555 92.3078 124.333 91.4745C152.111 90.6412 163.222 152.183 191 154.475C218.778 156.766 229.889 100.391 257.667 102.475C285.444 104.558 296.556 162.391 324.333 164.475C352.111 166.558 363.222 113.1 391 112.475C418.778 111.85 429.889 159.391 457.667 161.475C485.444 163.558 496.556 124.35 524.333 122.475C552.111 120.6 563.222 157.475 591 152.475C618.778 147.475 629.889 98.2662 657.667 98.4745C685.444 98.6828 698.639 147.433 724.333 153.475C750.028 159.516 769.194 132.891 781 127.475" stroke="url(#paint11_linear_20_7936)" stroke-width="2" stroke-linecap="round"/>
<path d="M1 117.475C12.8056 123.933 31.9722 155.975 57.6667 148.475C83.3611 140.975 96.5555 82.3078 124.333 81.4745C152.111 80.6412 163.222 142.183 191 144.475C218.778 146.766 229.889 90.3912 257.667 92.4745C285.444 94.5578 296.556 152.391 324.333 154.475C352.111 156.558 363.222 103.1 391 102.475C418.778 101.85 429.889 149.391 457.667 151.475C485.444 153.558 496.556 114.35 524.333 112.475C552.111 110.6 563.222 147.475 591 142.475C618.778 137.475 629.889 88.2662 657.667 88.4745C685.444 88.6828 698.639 137.433 724.333 143.475C750.028 149.516 769.194 122.891 781 117.475" stroke="url(#paint12_linear_20_7936)" stroke-width="2" stroke-linecap="round"/>
<path d="M1 107.475C12.8056 113.933 31.9722 145.975 57.6667 138.475C83.3611 130.975 96.5555 72.3078 124.333 71.4745C152.111 70.6412 163.222 132.183 191 134.475C218.778 136.766 229.889 80.3912 257.667 82.4745C285.444 84.5578 296.556 142.391 324.333 144.475C352.111 146.558 363.222 93.0995 391 92.4745C418.778 91.8495 429.889 139.391 457.667 141.475C485.444 143.558 496.556 104.35 524.333 102.475C552.111 100.6 563.222 137.475 591 132.475C618.778 127.475 629.889 78.2662 657.667 78.4745C685.444 78.6828 698.639 127.433 724.333 133.475C750.028 139.516 769.194 112.891 781 107.475" stroke="url(#paint13_linear_20_7936)" stroke-width="2" stroke-linecap="round"/>
<path d="M1 97.4745C12.8056 103.933 31.9722 135.975 57.6667 128.475C83.3611 120.975 96.5555 62.3078 124.333 61.4745C152.111 60.6412 163.222 122.183 191 124.475C218.778 126.766 229.889 70.3912 257.667 72.4745C285.444 74.5578 296.556 132.391 324.333 134.475C352.111 136.558 363.222 83.0995 391 82.4745C418.778 81.8495 429.889 129.391 457.667 131.475C485.444 133.558 496.556 94.3495 524.333 92.4745C552.111 90.5995 563.222 127.475 591 122.475C618.778 117.475 629.889 68.2662 657.667 68.4745C685.444 68.6828 698.639 117.433 724.333 123.475C750.028 129.516 769.194 102.891 781 97.4745" stroke="url(#paint14_linear_20_7936)" stroke-width="2" stroke-linecap="round"/>
<path d="M1 87.4745C12.8056 93.9328 31.9722 125.975 57.6667 118.475C83.3611 110.975 96.5555 52.3078 124.333 51.4745C152.111 50.6412 163.222 112.183 191 114.475C218.778 116.766 229.889 60.3912 257.667 62.4745C285.444 64.5578 296.556 122.391 324.333 124.475C352.111 126.558 363.222 73.0995 391 72.4745C418.778 71.8495 429.889 119.391 457.667 121.475C485.444 123.558 496.556 84.3495 524.333 82.4745C552.111 80.5995 563.222 117.475 591 112.475C618.778 107.475 629.889 58.2662 657.667 58.4745C685.444 58.6828 698.639 107.433 724.333 113.475C750.028 119.516 769.194 92.8912 781 87.4745" stroke="url(#paint15_linear_20_7936)" stroke-width="2" stroke-linecap="round"/>
<path d="M1 77.4745C12.8056 83.9328 31.9722 115.975 57.6667 108.475C83.3611 100.975 96.5555 42.3078 124.333 41.4745C152.111 40.6412 163.222 102.183 191 104.475C218.778 106.766 229.889 50.3912 257.667 52.4745C285.444 54.5578 296.556 112.391 324.333 114.475C352.111 116.558 363.222 63.0995 391 62.4745C418.778 61.8495 429.889 109.391 457.667 111.475C485.444 113.558 496.556 74.3495 524.333 72.4745C552.111 70.5995 563.222 107.475 591 102.475C618.778 97.4745 629.889 48.2662 657.667 48.4745C685.444 48.6828 698.639 97.4328 724.333 103.475C750.028 109.516 769.194 82.8912 781 77.4745" stroke="url(#paint16_linear_20_7936)" stroke-width="2" stroke-linecap="round"/>
<path d="M1 67.4745C12.8056 73.9328 31.9722 105.975 57.6667 98.4745C83.3611 90.9745 96.5555 32.3078 124.333 31.4745C152.111 30.6412 163.222 92.1828 191 94.4745C218.778 96.7662 229.889 40.3912 257.667 42.4745C285.444 44.5578 296.556 102.391 324.333 104.475C352.111 106.558 363.222 53.0995 391 52.4745C418.778 51.8495 429.889 99.3912 457.667 101.475C485.444 103.558 496.556 64.3495 524.333 62.4745C552.111 60.5995 563.222 97.4745 591 92.4745C618.778 87.4745 629.889 38.2662 657.667 38.4745C685.444 38.6828 698.639 87.4328 724.333 93.4745C750.028 99.5162 769.194 72.8912 781 67.4745" stroke="url(#paint17_linear_20_7936)" stroke-width="2" stroke-linecap="round"/>
<path d="M1 57.4745C12.8056 63.9328 31.9722 95.9745 57.6667 88.4745C83.3611 80.9745 96.5555 22.3078 124.333 21.4745C152.111 20.6412 163.222 82.1828 191 84.4745C218.778 86.7662 229.889 30.3912 257.667 32.4745C285.444 34.5578 296.556 92.3912 324.333 94.4745C352.111 96.5578 363.222 43.0995 391 42.4745C418.778 41.8495 429.889 89.3912 457.667 91.4745C485.444 93.5578 496.556 54.3495 524.333 52.4745C552.111 50.5995 563.222 87.4745 591 82.4745C618.778 77.4745 629.889 28.2662 657.667 28.4745C685.444 28.6828 698.639 77.4328 724.333 83.4745C750.028 89.5162 769.194 62.8912 781 57.4745" stroke="url(#paint18_linear_20_7936)" stroke-width="2" stroke-linecap="round"/>
<path d="M1 47.4745C12.8056 53.9328 31.9722 85.9745 57.6667 78.4745C83.3611 70.9745 96.5555 12.3078 124.333 11.4745C152.111 10.6412 163.222 72.1828 191 74.4745C218.778 76.7662 229.889 20.3912 257.667 22.4745C285.444 24.5578 296.556 82.3912 324.333 84.4745C352.111 86.5578 363.222 33.0995 391 32.4745C418.778 31.8495 429.889 79.3912 457.667 81.4745C485.444 83.5578 496.556 44.3495 524.333 42.4745C552.111 40.5995 563.222 77.4745 591 72.4745C618.778 67.4745 629.889 18.2662 657.667 18.4745C685.444 18.6828 698.639 67.4328 724.333 73.4745C750.028 79.5162 769.194 52.8912 781 47.4745" stroke="url(#paint19_linear_20_7936)" stroke-width="2" stroke-linecap="round"/>
<defs>
<linearGradient id="paint0_linear_20_7936" x1="-35.0084" y1="-38982.5" x2="7271.76" y2="-38982.5" gradientUnits="userSpaceOnUse">
<stop stop-color="#9F3ECC"/>
<stop offset="1" stop-color="#F3A5ED"/>
</linearGradient>
<linearGradient id="paint1_linear_20_7936" x1="-35.0084" y1="-38792.5" x2="7271.76" y2="-38792.5" gradientUnits="userSpaceOnUse">
<stop stop-color="#9F3ECC"/>
<stop offset="1" stop-color="#F3A5ED"/>
</linearGradient>
<linearGradient id="paint2_linear_20_7936" x1="-35.0084" y1="-38802.5" x2="7271.76" y2="-38802.5" gradientUnits="userSpaceOnUse">
<stop stop-color="#9F3ECC"/>
<stop offset="1" stop-color="#F3A5ED"/>
</linearGradient>
<linearGradient id="paint3_linear_20_7936" x1="-35.0084" y1="-38812.5" x2="7271.76" y2="-38812.5" gradientUnits="userSpaceOnUse">
<stop stop-color="#9F3ECC"/>
<stop offset="1" stop-color="#F3A5ED"/>
</linearGradient>
<linearGradient id="paint4_linear_20_7936" x1="-35.0084" y1="-38822.5" x2="7271.76" y2="-38822.5" gradientUnits="userSpaceOnUse">
<stop stop-color="#9F3ECC"/>
<stop offset="1" stop-color="#F3A5ED"/>
</linearGradient>
<linearGradient id="paint5_linear_20_7936" x1="-35.0084" y1="-38832.5" x2="7271.76" y2="-38832.5" gradientUnits="userSpaceOnUse">
<stop stop-color="#9F3ECC"/>
<stop offset="1" stop-color="#F3A5ED"/>
</linearGradient>
<linearGradient id="paint6_linear_20_7936" x1="-35.0084" y1="-38842.5" x2="7271.76" y2="-38842.5" gradientUnits="userSpaceOnUse">
<stop stop-color="#9F3ECC"/>
<stop offset="1" stop-color="#F3A5ED"/>
</linearGradient>
<linearGradient id="paint7_linear_20_7936" x1="-35.0084" y1="-38852.5" x2="7271.76" y2="-38852.5" gradientUnits="userSpaceOnUse">
<stop stop-color="#9F3ECC"/>
<stop offset="1" stop-color="#F3A5ED"/>
</linearGradient>
<linearGradient id="paint8_linear_20_7936" x1="-35.0084" y1="-38862.5" x2="7271.76" y2="-38862.5" gradientUnits="userSpaceOnUse">
<stop stop-color="#9F3ECC"/>
<stop offset="1" stop-color="#F3A5ED"/>
</linearGradient>
<linearGradient id="paint9_linear_20_7936" x1="-35.0084" y1="-38872.5" x2="7271.76" y2="-38872.5" gradientUnits="userSpaceOnUse">
<stop stop-color="#9F3ECC"/>
<stop offset="1" stop-color="#F3A5ED"/>
</linearGradient>
<linearGradient id="paint10_linear_20_7936" x1="-35.0084" y1="-38882.5" x2="7271.76" y2="-38882.5" gradientUnits="userSpaceOnUse">
<stop stop-color="#9F3ECC"/>
<stop offset="1" stop-color="#F3A5ED"/>
</linearGradient>
<linearGradient id="paint11_linear_20_7936" x1="-35.0084" y1="-38892.5" x2="7271.76" y2="-38892.5" gradientUnits="userSpaceOnUse">
<stop stop-color="#9F3ECC"/>
<stop offset="1" stop-color="#F3A5ED"/>
</linearGradient>
<linearGradient id="paint12_linear_20_7936" x1="-35.0084" y1="-38902.5" x2="7271.76" y2="-38902.5" gradientUnits="userSpaceOnUse">
<stop stop-color="#9F3ECC"/>
<stop offset="1" stop-color="#F3A5ED"/>
</linearGradient>
<linearGradient id="paint13_linear_20_7936" x1="-35.0084" y1="-38912.5" x2="7271.76" y2="-38912.5" gradientUnits="userSpaceOnUse">
<stop stop-color="#9F3ECC"/>
<stop offset="1" stop-color="#F3A5ED"/>
</linearGradient>
<linearGradient id="paint14_linear_20_7936" x1="-35.0084" y1="-38922.5" x2="7271.76" y2="-38922.5" gradientUnits="userSpaceOnUse">
<stop stop-color="#9F3ECC"/>
<stop offset="1" stop-color="#F3A5ED"/>
</linearGradient>
<linearGradient id="paint15_linear_20_7936" x1="-35.0084" y1="-38932.5" x2="7271.76" y2="-38932.5" gradientUnits="userSpaceOnUse">
<stop stop-color="#9F3ECC"/>
<stop offset="1" stop-color="#F3A5ED"/>
</linearGradient>
<linearGradient id="paint16_linear_20_7936" x1="-35.0084" y1="-38942.5" x2="7271.76" y2="-38942.5" gradientUnits="userSpaceOnUse">
<stop stop-color="#9F3ECC"/>
<stop offset="1" stop-color="#F3A5ED"/>
</linearGradient>
<linearGradient id="paint17_linear_20_7936" x1="-35.0084" y1="-38952.5" x2="7271.76" y2="-38952.5" gradientUnits="userSpaceOnUse">
<stop stop-color="#9F3ECC"/>
<stop offset="1" stop-color="#F3A5ED"/>
</linearGradient>
<linearGradient id="paint18_linear_20_7936" x1="-35.0084" y1="-38962.5" x2="7271.76" y2="-38962.5" gradientUnits="userSpaceOnUse">
<stop stop-color="#9F3ECC"/>
<stop offset="1" stop-color="#F3A5ED"/>
</linearGradient>
<linearGradient id="paint19_linear_20_7936" x1="-35.0084" y1="-38972.5" x2="7271.76" y2="-38972.5" gradientUnits="userSpaceOnUse">
<stop stop-color="#9F3ECC"/>
<stop offset="1" stop-color="#F3A5ED"/>
</linearGradient>
</defs>
</svg>
